<svg xmlns="http://www.w3.org/2000/svg" viewBox="0 0 32 248" width="32" height="248"><defs><clipPath id="artboard-1141221793178316242"><rect x="0" y="0" width="32" height="248"/></clipPath></defs><g>
<rect fill="#000000" x="0" y="0" width="32" height="248"/>
<g clip-path="url(#artboard-1141221793178316242)">
	<g>
		<path d="M38,-64.00000000000001 L-10,-64.00000000000001 L-10,31.999999999999982 L38,79.99999999999999 C38,79.99999999999999 38,-64.00000000000001 38,-64.00000000000001 Z" transform="matrix(1,0,0,1,2,56)" fill="none" stroke="#ffffff" stroke-width="2"/>
	</g>
	<g>
		<g>
			<path d="M17,6 C22.51784777779014,6 27,10.482152222209859 27,16 C27,21.51784777779014 22.51784777779014,26 17,26 C11.482152222209859,26 7,21.51784777779014 7,16 C7,10.482152222209859 11.482152222209859,6 17,6 Z" fill="none" stroke="#ffffff" stroke-width="2"/>
		</g>
		<g>
			<path d="M9,9 C9,9 16,16 16,16" transform="matrix(1,0,0,1,1,0)" fill="none" stroke="#ffffff" stroke-width="2" stroke-linecap="round" stroke-linejoin="bevel"/>
		</g>
		<g transform="matrix(1,0,0,1,0,32)">
			<path d="M17,6 C22.51784777779014,6 27,10.482152222209859 27,16 C27,21.51784777779014 22.51784777779014,26 17,26 C11.482152222209859,26 7,21.51784777779014 7,16 C7,10.482152222209859 11.482152222209859,6 17,6 Z" fill="none" stroke="#ffffff" stroke-width="2"/>
		</g>
		<g transform="matrix(1,0,0,1,0,32)">
			<path d="M9,9 C9,9 16,16 16,16" transform="matrix(1,0,0,1,1,0)" fill="none" stroke="#ffffff" stroke-width="2" stroke-linecap="round" stroke-linejoin="bevel"/>
		</g>
		<g transform="matrix(1,0,0,1,0,64)">
			<path d="M17,6 C22.51784777779014,6 27,10.482152222209859 27,16 C27,21.51784777779014 22.51784777779014,26 17,26 C11.482152222209859,26 7,21.51784777779014 7,16 C7,10.482152222209859 11.482152222209859,6 17,6 Z" fill="none" stroke="#ffffff" stroke-width="2"/>
		</g>
		<g transform="matrix(1,0,0,1,0,64)">
			<path d="M9,9 C9,9 16,16 16,16" transform="matrix(1,0,0,1,1,0)" fill="none" stroke="#ffffff" stroke-width="2" stroke-linecap="round" stroke-linejoin="bevel"/>
		</g>
	</g>
	<g>
		<g>
			<path d="M8,120.00000000000006 C8,120.00000000000006 24.000000000000004,136.00000000000003 24.000000000000004,136.00000000000003 C24.000000000000004,136.00000000000003 24.000000000000004,144.00000000000003 24.000000000000004,144.00000000000003 C24.000000000000004,144.00000000000003 8,128.00000000000006 8,128.00000000000006 C8,128.00000000000006 8,120.00000000000006 8,120.00000000000006 Z" fill="#ffffff"/>
		</g>
		<g transform="matrix(1,0,0,1,0,24)">
			<path d="M8,120.00000000000006 C8,120.00000000000006 24.000000000000004,136.00000000000003 24.000000000000004,136.00000000000003 C24.000000000000004,136.00000000000003 24.000000000000004,144.00000000000003 24.000000000000004,144.00000000000003 C24.000000000000004,144.00000000000003 8,128.00000000000006 8,128.00000000000006 C8,128.00000000000006 8,120.00000000000006 8,120.00000000000006 Z" fill="#ffffff"/>
		</g>
		<g transform="matrix(1,0,0,1,0,48)">
			<path d="M8,120.00000000000006 C8,120.00000000000006 24.000000000000004,136.00000000000003 24.000000000000004,136.00000000000003 C24.000000000000004,136.00000000000003 24.000000000000004,144.00000000000003 24.000000000000004,144.00000000000003 C24.000000000000004,144.00000000000003 8,128.00000000000006 8,128.00000000000006 C8,128.00000000000006 8,120.00000000000006 8,120.00000000000006 Z" fill="#ffffff"/>
		</g>
		<g transform="matrix(1,0,0,1,0,72)">
			<path d="M8,120.00000000000006 C8,120.00000000000006 24.000000000000004,136.00000000000003 24.000000000000004,136.00000000000003 C24.000000000000004,136.00000000000003 24.000000000000004,144.00000000000003 24.000000000000004,144.00000000000003 C24.000000000000004,144.00000000000003 8,128.00000000000006 8,128.00000000000006 C8,128.00000000000006 8,120.00000000000006 8,120.00000000000006 Z" fill="#ffffff"/>
		</g>
		<g transform="matrix(1,0,0,1,0,96)">
			<path d="M8,120.00000000000006 C8,120.00000000000006 24.000000000000004,136.00000000000003 24.000000000000004,136.00000000000003 C24.000000000000004,136.00000000000003 24.000000000000004,144.00000000000003 24.000000000000004,144.00000000000003 C24.000000000000004,144.00000000000003 8,128.00000000000006 8,128.00000000000006 C8,128.00000000000006 8,120.00000000000006 8,120.00000000000006 Z" fill="#ffffff"/>
		</g>
	</g>
	<g>
		<path d="M37.99999999999996,126.88000000000001 L29.999999999999957,126.88000000000001 L29.999999999999957,248.00000000000006 L37.99999999999996,248.00000000000006 L37.99999999999996,126.88000000000001 Z" fill="#fefefe"/>
	</g>
</g></g></svg>